# xmcd
#
# Track frame offsets:
#	150
#	8501
#	18627
#	24758
#	36200
#	42795
#	52527
#	62326
#	72023
#	82991
#	93430
#	102316
#
# Disc length: 1602 seconds
#
# Revision: 1
# Processed by: cddbd v1.5.2PL0 Copyright (c) Steve Scherf et al.
# Submitted via: audiograbber 1.83.01
#
DISCID=7906400c
DTITLE=Spearhead - Departure from Mankind
DYEAR=2000
DGENRE=Grind
TTITLE0=Du Arsch!
TTITLE1=Love, Peace And Understanding
TTITLE2=The Effect Of World Downfall
TTITLE3=My Removal
TTITLE4=Gothics Suck
TTITLE5=Dissection As Correction
TTITLE6=Judgment Day
TTITLE7=Window To Hell
TTITLE8=Proof Sheet
TTITLE9=The Crap
TTITLE10=Haensel und Gretel
TTITLE11=Short Getruemmer
EXTD=
EXTT0=
EXTT1=
EXTT2=
EXTT3=
EXTT4=
EXTT5=
EXTT6=
EXTT7=
EXTT8=
EXTT9=
EXTT10=
EXTT11=
PLAYORDER=
